<?xml version="1.0" encoding="UTF-8" standalone="no"?>
<!-- Created with Inkscape (http://www.inkscape.org/) -->

<svg
   xmlns:ns1="https://launchpad.net/jessyink"
   xmlns:dc="http://purl.org/dc/elements/1.1/"
   xmlns:cc="http://creativecommons.org/ns#"
   xmlns:rdf="http://www.w3.org/1999/02/22-rdf-syntax-ns#"
   xmlns:svg="http://www.w3.org/2000/svg"
   xmlns="http://www.w3.org/2000/svg"
   xmlns:xlink="http://www.w3.org/1999/xlink"
   xmlns:sodipodi="http://sodipodi.sourceforge.net/DTD/sodipodi-0.dtd"
   xmlns:inkscape="http://www.inkscape.org/namespaces/inkscape"
   width="441.3562"
   height="250.05107"
   id="svg13970"
   version="1.1"
   inkscape:version="0.48.1 r9760"
   sodipodi:docname="New document 6">
  <defs
     id="defs13972" />
  <sodipodi:namedview
     id="base"
     pagecolor="#ffffff"
     bordercolor="#666666"
     borderopacity="1.0"
     inkscape:pageopacity="0.0"
     inkscape:pageshadow="2"
     inkscape:zoom="1.4"
     inkscape:cx="140.29745"
     inkscape:cy="71.896159"
     inkscape:document-units="px"
     inkscape:current-layer="layer1"
     showgrid="false"
     fit-margin-top="0"
     fit-margin-left="0"
     fit-margin-right="0"
     fit-margin-bottom="0"
     showguides="true"
     inkscape:guide-bbox="true"
     inkscape:window-width="1920"
     inkscape:window-height="1143"
     inkscape:window-x="0"
     inkscape:window-y="26"
     inkscape:window-maximized="1" />
  <metadata
     id="metadata13975">
    <rdf:RDF>
      <cc:Work
         rdf:about="">
        <dc:format>image/svg+xml</dc:format>
        <dc:type
           rdf:resource="http://purl.org/dc/dcmitype/StillImage" />
        <dc:title></dc:title>
      </cc:Work>
    </rdf:RDF>
  </metadata>
  <g
     inkscape:label="Layer 1"
     inkscape:groupmode="layer"
     id="layer1"
     transform="translate(-322.3868,-112.47528)">
    <a
       xlink:title="Plot #1"
       id="a5116"
       transform="matrix(4.0866315,0,0,4.0866315,-1079.3278,-72.189379)">
      <g
         style="color:#ff0000;fill:none;stroke:currentColor;stroke-width:1;stroke-linecap:butt;stroke-linejoin:miter"
         id="g5118">
        <g
           transform="translate(576.1,510)"
           style="font-size:20px;text-anchor:end;fill:#000000;stroke:none;font-family:freesans"
           id="g5120" />
        <path
           sodipodi:nodetypes="cccccccccccccccccccccccccccccccccccccccccccccccccc"
           inkscape:connector-curvature="0"
           d="m 343.5,60.3 2.2,0 2.2,0 2.2,0 2.2,0 2.2,0 2.2,0 2.2,0 2.2,0 2.2,0 2.2,0 2.2,0 2.1,0 2.2,0 2.2,0 2.2,0 2.2,0 2.2,0 2.2,0 2.2,0 2.2,0 2.2,0 2.2,0 2.2,0 2.2,0 2.1,0 2.2,0 2.2,0 2.2,0 2.2,0 2.2,0 2.2,0 2.2,0 2.2,0 2.2,0 2.2,0 2.2,0 2.1,0 2.2,0 2.2,0 2.2,0 2.2,0 2.2,0 2.2,0 2.2,0 2.2,0 2.2,0 2.2,0 2.2,0 2.2,0"
           id="path5126" />
      </g>
    </a>
    <a
       xlink:title="Plot #2"
       id="a5128"
       transform="matrix(4.0866315,0,0,4.0866315,-1079.3278,-72.189379)">
      <g
         style="color:#008000;fill:none;stroke:currentColor;stroke-width:1;stroke-linecap:butt;stroke-linejoin:miter"
         id="g5130">
        <g
           transform="translate(576.1,534)"
           style="font-size:20px;text-anchor:end;fill:#000000;stroke:none;font-family:freesans"
           id="g5132" />
        <path
           sodipodi:nodetypes="cccccccccccccccccccccccccccccccccccccccccccccccccc"
           inkscape:connector-curvature="0"
           d="m 343.5,67.3 2.2,0 2.2,0 2.2,0 2.2,0 2.2,0 2.2,0 2.2,0 2.2,0 2.2,0 2.2,0 2.2,0 2.1,0 2.2,0 2.2,8.6 2.2,0 2.2,0 2.2,0 2.2,0 2.2,0 2.2,0 2.2,0 2.2,-8.6 2.2,0 2.2,0 2.1,8.6 2.2,0 2.2,0 2.2,0 2.2,0 2.2,0 2.2,0 2.2,0 2.2,0 2.2,0 2.2,0 2.2,0 2.1,0 2.2,0 2.2,0 2.2,0 2.2,0 2.2,0 2.2,0 2.2,0 2.2,0 2.2,0 2.2,-8.6 2.2,8.6 2.2,0"
           id="path5138" />
      </g>
    </a>
    <a
       xlink:title="Plot #3"
       id="a5140"
       transform="matrix(4.0866315,0,0,4.0866315,-1079.3278,-72.189379)">
      <g
         style="color:#0000ff;fill:none;stroke:currentColor;stroke-width:1;stroke-linecap:butt;stroke-linejoin:miter"
         id="g5142">
        <g
           transform="translate(576.1,558)"
           style="font-size:20px;text-anchor:end;fill:#000000;stroke:none;font-family:freesans"
           id="g5144" />
        <path
           sodipodi:nodetypes="cccccccccccccccccccccccccccccccccccccccccccccccccc"
           inkscape:connector-curvature="0"
           d="m 343.5,45.7 2.2,8.7 2.2,-8.7 2.2,0 2.2,8.7 2.2,-8.7 2.2,0 2.2,8.7 2.2,-8.7 2.2,0 2.2,8.6 2.2,-8.6 2.1,0 2.2,8.6 2.2,-8.6 2.2,8.6 2.2,0 2.2,0 2.2,0 2.2,8.7 2.2,-8.7 2.2,8.7 2.2,-8.7 2.2,0 2.2,-8.6 2.1,0 2.2,0 2.2,0 2.2,0 2.2,0 2.2,8.6 2.2,0 2.2,8.7 2.2,-8.7 2.2,8.7 2.2,-8.7 2.2,8.7 2.1,-8.7 2.2,8.7 2.2,-8.7 2.2,8.6 2.2,-8.6 2.2,8.6 2.2,-8.6 2.2,8.6 2.2,-8.6 2.2,8.6 2.2,-8.6 2.2,0 2.2,0"
           id="path5150" />
      </g>
    </a>
    <a
       xlink:title="Plot #4"
       id="a5152"
       transform="matrix(4.0866315,0,0,4.0866315,-1079.3278,-72.189379)">
      <g
         style="color:#ff9900;fill:none;stroke:currentColor;stroke-width:1;stroke-linecap:butt;stroke-linejoin:miter"
         id="g5154">
        <g
           transform="translate(576.1,582)"
           style="font-size:20px;text-anchor:end;fill:#000000;stroke:none;font-family:freesans"
           id="g5156" />
        <path
           sodipodi:nodetypes="cccccccccccccccccccccccccccccccccccccccccccccccccc"
           inkscape:connector-curvature="0"
           d="m 343.5,65.9 2.2,0 2.2,0 2.2,0 2.2,0 2.2,0 2.2,0 2.2,0 2.2,0 2.2,0 2.2,0 2.2,0 2.1,0 2.2,0 2.2,8.6 2.2,-5.8 2.2,5.8 2.2,-5.8 2.2,5.8 2.2,-5.8 2.2,5.8 2.2,-5.8 2.2,-8.6 2.2,-5.8 2.2,0 2.1,14.4 2.2,0 2.2,5.8 2.2,-5.8 2.2,5.8 2.2,-5.8 2.2,5.8 2.2,-5.8 2.2,5.8 2.2,-5.8 2.2,5.8 2.2,-5.8 2.1,5.8 2.2,-5.8 2.2,5.8 2.2,-5.8 2.2,5.8 2.2,-5.8 2.2,5.8 2.2,-5.8 2.2,5.8 2.2,-5.8 2.2,-8.6 2.2,8.6 2.2,0"
           id="path5162" />
      </g>
    </a>
    <g
       style="display:inline;enable-background:new"
       id="g6861"
       ns1:effectIn="name:appear;order:1;length:100"
       transform="matrix(4.0866315,0,0,4.0866315,-1390.2588,-589.38513)">
      <text
         x="463.91513"
         id="text5122-0"
         style="font-size:2.92206979px;text-anchor:end;color:#ff0000;fill:#000000;stroke:none;display:inline;enable-background:new;font-family:freesans"
         y="228.78951">
        <tspan
           id="tspan5124-4">original with pool allocation</tspan>
      </text>
      <path
         sodipodi:nodetypes="cc"
         inkscape:connector-curvature="0"
         d="m 465.60368,227.90526 9.49673,0.008"
         id="path5126-1"
         style="color:#ff0000;fill:none;stroke:currentColor;stroke-width:0.5;stroke-linecap:butt;stroke-linejoin:miter;stroke-miterlimit:4;stroke-dasharray:none;display:inline;enable-background:new" />
      <text
         x="463.91513"
         id="text5134-3"
         style="font-size:2.92206979px;text-anchor:end;color:#008000;fill:#000000;stroke:none;display:inline;enable-background:new;font-family:freesans"
         y="232.29601">
        <tspan
           id="tspan5136-0">original without pool allocation</tspan>
      </text>
      <path
         sodipodi:nodetypes="cc"
         inkscape:connector-curvature="0"
         d="m 465.60368,231.41174 9.49673,0"
         id="path5138-2"
         style="color:#008000;fill:none;stroke:currentColor;stroke-width:0.5;stroke-linecap:butt;stroke-linejoin:miter;stroke-miterlimit:4;stroke-dasharray:none;display:inline;enable-background:new" />
      <text
         x="510.19226"
         y="228.78951"
         id="text5146-9"
         style="font-size:2.92206979px;text-anchor:end;color:#0000ff;fill:#000000;stroke:none;display:inline;enable-background:new;font-family:freesans">
        <tspan
           id="tspan5148-6">SCM single refresh</tspan>
      </text>
      <path
         sodipodi:nodetypes="cc"
         inkscape:connector-curvature="0"
         d="m 511.62628,227.90526 9.49673,0"
         id="path5150-0"
         style="color:#0000ff;fill:none;stroke:currentColor;stroke-width:0.5;stroke-linecap:butt;stroke-linejoin:miter;stroke-miterlimit:4;stroke-dasharray:none;display:inline;enable-background:new" />
      <text
         y="232.86583"
         x="510.19226"
         id="text5158-9"
         style="font-size:2.92206979px;text-anchor:end;color:#ff9900;fill:#000000;stroke:none;display:inline;enable-background:new;font-family:freesans">
        <tspan
           id="tspan5160-3">SCM continuous refresh</tspan>
      </text>
      <path
         sodipodi:nodetypes="cc"
         inkscape:connector-curvature="0"
         d="m 511.62628,231.41174 9.49673,0"
         id="path5162-5"
         style="color:#ff9900;fill:none;stroke:currentColor;stroke-width:0.5;stroke-linecap:butt;stroke-linejoin:miter;stroke-miterlimit:4;stroke-dasharray:none;display:inline;enable-background:new" />
    </g>
    <rect
       style="fill:#ffffff;fill-opacity:1;stroke:#5ea4f3;stroke-width:2.04331589;stroke-linecap:round;stroke-miterlimit:4;stroke-opacity:1;stroke-dasharray:none;display:inline;enable-background:new"
       id="rect49138"
       width="365.69006"
       height="52.668949"
       x="348.71423"
       y="255.05611"
       ry="8.3791513"
       ns1:effectIn="name:appear;order:2;length:100" />
    <g
       transform="matrix(4.0866315,0,0,4.0866315,-1390.2588,-624.09874)"
       style="display:inline;enable-background:new"
       id="g17218"
       ns1:effectIn="name:appear;order:2;length:100">
      <path
         transform="matrix(0.10278454,0,0,0.10278454,394.91387,194.88387)"
         sodipodi:type="star"
         style="fill:#5ea4f3;fill-opacity:1;stroke:#000080;stroke-width:1;stroke-miterlimit:4;stroke-dasharray:none;display:inline;enable-background:new"
         id="path5029"
         sodipodi:sides="3"
         sodipodi:cx="335.534"
         sodipodi:cy="231.97409"
         sodipodi:r1="7.7232456"
         sodipodi:r2="4.2648568"
         sodipodi:arg1="-0.00029517455"
         sodipodi:arg2="1.0469025"
         inkscape:flatsided="true"
         inkscape:rounded="0"
         inkscape:randomized="0"
         d="m 343.25724,231.97181 -11.58289,6.69195 -0.004,-13.37706 z"
         inkscape:transform-center-x="-0.0072382869"
         inkscape:transform-center-y="-0.21289011" />
      <text
         x="432.31232"
         id="text5031"
         style="font-size:2.92206979px;text-align:start;text-anchor:start;color:#ff0000;fill:#000000;stroke:none;display:inline;enable-background:new;font-family:freesans"
         y="219.8244">
        <tspan
           id="tspan5033"
           style="text-align:start;text-anchor:start">Bounded memory overhead</tspan>
      </text>
    </g>
    <g
       style="display:inline;enable-background:new"
       transform="matrix(4.0866315,0,0,4.0866315,-1390.2588,-619.31063)"
       ns1:effectIn="name:appear;order:2;length:100"
       id="g17226">
      <path
         inkscape:transform-center-y="-0.21289011"
         inkscape:transform-center-x="-0.0072382869"
         d="m 343.25724,231.97181 -11.58289,6.69195 -0.004,-13.37706 z"
         inkscape:randomized="0"
         inkscape:rounded="0"
         inkscape:flatsided="true"
         sodipodi:arg2="1.0469025"
         sodipodi:arg1="-0.00029517455"
         sodipodi:r2="4.2648568"
         sodipodi:r1="7.7232456"
         sodipodi:cy="231.97409"
         sodipodi:cx="335.534"
         sodipodi:sides="3"
         id="path34307-2"
         style="fill:#5ea4f3;fill-opacity:1;stroke:#000080;stroke-width:1;stroke-miterlimit:4;stroke-dasharray:none;display:inline;enable-background:new"
         sodipodi:type="star"
         transform="matrix(0.10278454,0,0,0.10278454,394.91387,198.08759)" />
      <text
         y="223.02812"
         style="font-size:2.92206979px;text-align:start;text-anchor:start;color:#ff0000;fill:#000000;stroke:none;display:inline;enable-background:new;font-family:freesans"
         id="text5122-0-1"
         x="432.31232">
        <tspan
           style="text-align:start;text-anchor:start"
           id="tspan5124-4-7">Easier to use than explicit deallocation (no reference counting)</tspan>
      </text>
    </g>
  </g>
</svg>
